@startuml
skinparam classAttributeIconSize 0

class Client {
}

interface Target {
    {abstract} +targetMethod1()
    {abstract} +targetMethod2()
}

class Adapter {
    +targetMethod1()
    +targetMethod2()    
}

class Adaptee {
    +MethodA()
    +MethodB()
    +MethodC()
}

Client --> Target : Uses >
Target <|.. Adapter : implements >
Adaptee <|-- Adapter : extends >

@enduml
